<?xml version="1.0" encoding="UTF-8"?>
<!-- Generator: visioncortex VTracer 0.6.3 -->
<svg version="1.1" xmlns="http://www.w3.org/2000/svg" width="1280" height="1280">
<path d="M0 0 C1.29 -0 1.29 -0 2.6 -0.01 C3.54 -0.01 4.48 -0 5.45 -0 C6.44 -0 7.44 -0.01 8.46 -0.01 C11.74 -0.01 15.03 -0.01 18.32 -0.01 C20.59 -0.01 22.87 -0.01 25.15 -0.01 C29.92 -0.01 34.7 -0.01 39.48 -0 C45.61 0 51.74 -0 57.87 -0.01 C62.58 -0.01 67.28 -0.01 71.98 -0.01 C74.25 -0.01 76.51 -0.01 78.77 -0.01 C81.93 -0.01 85.08 -0.01 88.24 -0 C89.65 -0.01 89.65 -0.01 91.09 -0.01 C91.95 -0.01 92.81 -0 93.69 0 C94.43 0 95.18 0 95.95 0 C97.78 0.13 97.78 0.13 99.78 1.13 C102.18 1.29 104.57 1.41 106.97 1.5 C117.99 2.04 128.87 3.57 139.78 5.13 C141.02 5.3 142.26 5.48 143.54 5.66 C146.62 6.12 149.7 6.61 152.78 7.13 C153.43 7.24 154.08 7.34 154.75 7.45 C163.22 8.87 171.56 10.49 179.91 12.51 C183.25 13.23 186.54 13.58 189.94 13.89 C192.44 14.21 194.48 15.12 196.78 16.13 C202.44 18.02 207.86 19.31 213.78 20.13 C214.54 20.43 215.3 20.74 216.09 21.05 C219.05 22.24 221.99 23 225.09 23.75 C226.16 24.01 227.23 24.27 228.33 24.54 C229.14 24.73 229.95 24.93 230.78 25.13 C230.78 25.79 230.78 26.45 230.78 27.13 C232.67 27.25 232.67 27.25 234.59 27.38 C239.4 27.9 243.53 29.35 248.02 31.08 C251.42 32.37 254.87 33.39 258.36 34.41 C260.8 35.13 263.23 35.9 265.66 36.69 C266.35 36.92 267.05 37.15 267.77 37.38 C269.87 38.16 271.79 39.12 273.78 40.13 C275.32 40.77 276.86 41.39 278.41 42 C279.29 42.35 280.17 42.7 281.08 43.06 C282.79 43.74 284.49 44.4 286.2 45.06 C306.16 52.88 306.16 52.88 307.78 56.13 C309 56.35 310.21 56.58 311.47 56.81 C318.45 58.2 324.55 61.83 330.78 65.13 C331.75 65.61 331.75 65.61 332.73 66.1 C336.6 68.04 340.4 70.14 344.2 72.21 C346.99 73.7 349.69 75.09 352.63 76.25 C354.78 77.13 354.78 77.13 356.78 79.13 C358.43 79.83 360.1 80.51 361.78 81.13 C361.78 81.79 361.78 82.45 361.78 83.13 C362.75 83.33 363.72 83.54 364.72 83.75 C368.89 84.93 372.05 87.14 375.57 89.6 C379.76 92.49 384.2 94.93 388.78 97.13 C388.78 97.79 388.78 98.45 388.78 99.13 C389.77 99.13 390.76 99.13 391.78 99.13 C392.11 99.79 392.44 100.45 392.78 101.13 C394.1 101.81 395.44 102.47 396.78 103.13 C402.61 106.78 402.61 106.78 403.78 109.13 C404.77 109.13 405.76 109.13 406.78 109.13 C408.11 110.46 409.45 111.79 410.78 113.13 C412.97 114.68 415.21 116.14 417.46 117.61 C426.47 123.5 426.47 123.5 427.78 126.13 C428.44 126.13 429.1 126.13 429.78 126.13 C430.77 127.12 430.77 127.12 431.78 128.13 C432.96 129.01 434.15 129.89 435.34 130.75 C438.54 133.11 441.48 135.63 444.41 138.31 C447.72 141.32 450.65 143.43 454.78 145.13 C454.78 145.79 454.78 146.45 454.78 147.13 C455.62 147.47 455.62 147.47 456.47 147.81 C460.01 149.83 462.53 152.78 465.28 155.75 C466.8 157.25 466.8 157.25 469.03 158.38 C472.18 160.38 474.65 162.78 477.23 165.45 C477.73 165.96 478.23 166.46 478.74 166.99 C480.32 168.59 481.9 170.2 483.47 171.81 C485.55 173.95 487.64 176.08 489.73 178.2 C491.11 179.62 491.11 179.62 492.52 181.06 C494.52 183.35 494.52 183.35 496.78 183.13 C497.25 183.93 497.73 184.74 498.22 185.56 C499.58 188.42 499.58 188.42 502.78 189.13 C503.45 190.46 504.11 191.79 504.78 193.13 C506.42 194.83 508.08 196.48 509.78 198.13 C512.87 201.12 515.95 204.12 519.03 207.13 C520.27 208.32 520.27 208.32 521.54 209.53 C522.72 210.69 522.72 210.69 523.92 211.88 C524.64 212.57 525.36 213.27 526.09 213.99 C527.99 216.4 528.43 218.11 528.78 221.13 C529.77 221.46 530.76 221.79 531.78 222.13 C532.11 222.79 532.44 223.45 532.78 224.13 C533.92 225.16 535.09 226.15 536.28 227.13 C539.41 229.69 540.48 231.23 541.78 235.13 C542.77 235.46 543.76 235.79 544.78 236.13 C545.24 237.58 545.24 237.58 545.72 239.06 C546.42 242.21 546.42 242.21 548.66 243.13 C549.36 243.46 550.06 243.79 550.78 244.13 C552.16 246.09 553.49 248.1 554.78 250.13 C555.68 251.22 556.6 252.31 557.53 253.38 C559.78 256.13 559.78 256.13 559.78 258.13 C560.44 258.46 561.1 258.79 561.78 259.13 C562.11 260.12 562.44 261.11 562.78 262.13 C564.42 263.82 566.09 265.48 567.78 267.13 C570.63 270.25 572.88 273.03 574.47 276.94 C575.41 280.21 575.41 280.21 577.78 281.13 C579.21 283.34 580.49 285.6 581.76 287.91 C583.77 291.58 583.77 291.58 586.47 294.75 C588.31 296.68 588.43 298.54 588.78 301.13 C589.44 301.13 590.1 301.13 590.78 301.13 C590.86 302.08 590.95 303.02 591.03 304 C591.4 305.55 591.4 305.55 591.78 307.13 C592.41 307.43 593.05 307.73 593.7 308.04 C596.43 309.47 596.78 310.78 597.84 313.63 C599.18 317.16 599.49 317.94 602.78 320.13 C603.49 321.77 604.15 323.44 604.78 325.13 C605.28 325.95 605.77 326.78 606.28 327.63 C607.75 330.08 608.72 332.48 609.78 335.13 C610.32 336.01 610.85 336.9 611.41 337.81 C612.78 340.13 612.78 340.13 612.78 342.13 C613.44 342.46 614.1 342.79 614.78 343.13 C615.45 345.13 616.11 347.13 616.78 349.13 C617.62 350.21 617.62 350.21 618.47 351.31 C618.9 351.91 619.33 352.51 619.78 353.13 C619.45 354.12 619.12 355.11 618.78 356.13 C619.4 356.33 620.02 356.54 620.66 356.75 C623.66 358.7 623.8 360.74 624.78 364.13 C625.76 366.14 626.76 368.14 627.78 370.13 C628.11 370.97 628.44 371.82 628.78 372.69 C629.72 375.19 629.72 375.19 631.28 377.5 C633.06 380.61 633.9 383.67 634.78 387.13 C635.11 387.13 635.44 387.13 635.78 387.13 C636.45 389.13 637.11 391.13 637.78 393.13 C638.17 394.2 638.56 395.27 638.97 396.38 C639.78 399.13 639.78 399.13 638.78 401.13 C639.44 401.13 640.1 401.13 640.78 401.13 C641.02 401.74 641.27 402.36 641.51 403 C643.24 407.36 645.01 411.68 646.97 415.94 C648.36 419.02 649.15 421.8 649.78 425.13 C650.25 426.06 650.73 426.98 651.22 427.94 C653.06 431.7 653.96 435.02 654.78 439.13 C654.45 439.79 654.12 440.45 653.78 441.13 C654.44 441.46 655.1 441.79 655.78 442.13 C658.14 445.67 658.16 447.93 658.44 452.07 C658.61 454.35 658.61 454.35 660.78 456.13 C662.78 461.99 663.74 468.04 664.78 474.13 C665.11 474.13 665.44 474.13 665.78 474.13 C665.82 474.82 665.86 475.51 665.89 476.22 C666.3 481.99 667.13 486.96 669.26 492.35 C669.78 494.13 669.78 494.13 668.78 496.13 C669.44 496.13 670.1 496.13 670.78 496.13 C672.52 501.34 673.13 506.19 673.44 511.67 C673.63 514.38 673.63 514.38 675.78 517.13 C675.98 519.61 675.98 519.61 675.91 522.31 C675.89 523.22 675.87 524.12 675.85 525.04 C675.82 526.08 675.82 526.08 675.78 527.13 C676.44 527.13 677.1 527.13 677.78 527.13 C677.83 528.32 677.88 529.51 677.93 530.74 C678 532.31 678.08 533.87 678.16 535.44 C678.19 536.23 678.22 537.01 678.25 537.82 C678.29 538.58 678.33 539.33 678.37 540.12 C678.4 540.81 678.43 541.51 678.46 542.23 C678.7 544.45 678.7 544.45 680.78 547.13 C681.03 549.54 681.18 551.96 681.28 554.38 C681.44 558.36 681.67 561.76 682.82 565.59 C684.11 570.34 683.85 574.67 683.61 579.55 C683.51 583.49 683.83 586.49 685.27 590.18 C687.83 598.46 687.19 607.2 687.14 615.78 C687.14 617.7 687.14 619.61 687.15 621.52 C687.15 625.51 687.13 629.51 687.12 633.5 C687.09 638.6 687.09 643.7 687.1 648.79 C687.1 652.74 687.1 656.68 687.09 660.63 C687.08 662.51 687.08 664.38 687.08 666.26 C687.09 683.99 687.09 683.99 685.24 691.17 C684.38 694.83 684.35 698.57 684.22 702.31 C683.62 717.29 683.62 717.29 681.78 719.13 C681.49 722.1 681.33 725.07 681.16 728.05 C680.78 731.13 680.78 731.13 679.78 733.56 C678.49 736.87 678.39 739.84 678.22 743.38 C677.88 750.03 677.88 750.03 676.78 751.13 C676.49 753.58 676.33 756.03 676.16 758.49 C675.78 761.13 675.78 761.13 674.77 763.62 C673.69 766.35 673.48 768.52 673.34 771.44 C673.02 775.74 672.21 779.03 670.53 782.97 C669.59 785.66 669.2 788.3 668.78 791.13 C668.14 795.41 667.17 799.01 665.5 802.99 C664.27 806.65 663.89 810.47 663.41 814.29 C662.72 817.41 661.51 819.47 659.78 822.13 C659.43 823.45 659.1 824.79 658.78 826.13 C658.01 827.8 658.01 827.8 657.22 829.5 C655.57 832.93 655.57 832.93 655.91 836.06 C655.77 839.46 655.15 840.34 653.28 843.06 C651.23 846.06 650.78 846.84 650.78 850.63 C650.78 855 649.3 856.71 646.89 860.21 C645.34 862.89 645.57 865.1 645.78 868.13 C644.97 870.06 644.97 870.06 643.78 872.13 C643.23 873.37 642.69 874.62 642.16 875.88 C641.7 876.95 641.25 878.02 640.78 879.13 C640.12 879.13 639.46 879.13 638.78 879.13 C639.11 880.12 639.44 881.11 639.78 882.13 C638.8 883.48 637.8 884.81 636.78 886.13 C636.06 888.11 635.4 890.11 634.78 892.13 C633.32 896.25 631.79 900.24 629.78 904.13 C629.29 905.34 628.79 906.56 628.28 907.81 C626.78 911.13 626.78 911.13 624.78 912.13 C624.4 913.45 624.08 914.79 623.78 916.13 C622.09 920.97 622.09 920.97 619.78 922.13 C619.4 923.45 619.08 924.79 618.78 926.13 C617.09 930.97 617.09 930.97 614.78 932.13 C614.4 933.45 614.08 934.79 613.78 936.13 C612.09 940.97 612.09 940.97 609.78 942.13 C609.42 943.45 609.1 944.79 608.78 946.13 C606.39 952.73 606.39 952.73 603.59 954.56 C602.99 954.75 602.4 954.94 601.78 955.13 C602.11 956.45 602.44 957.77 602.78 959.13 C602.12 959.13 601.46 959.13 600.78 959.13 C600.49 959.7 600.2 960.28 599.91 960.88 C599.21 962.28 598.5 963.67 597.78 965.06 C596.7 967.19 596.7 967.19 595.84 969.81 C595.49 970.58 595.14 971.34 594.78 972.13 C593.79 972.46 592.8 972.79 591.78 973.13 C591.45 973.79 591.12 974.45 590.78 975.13 C591.77 975.62 591.77 975.62 592.78 976.13 C592.12 976.13 591.46 976.13 590.78 976.13 C590.45 976.79 590.12 977.45 589.78 978.13 C588.79 978.79 587.8 979.45 586.78 980.13 C587.11 981.45 587.44 982.77 587.78 984.13 C587.12 984.13 586.46 984.13 585.78 984.13 C585.45 985.12 585.12 986.11 584.78 987.13 C583.79 987.79 582.8 988.45 581.78 989.13 C581.78 989.79 581.78 990.45 581.78 991.13 C581.12 991.46 580.46 991.79 579.78 992.13 C579.64 992.7 579.49 993.28 579.34 993.88 C578.63 996.74 577.49 998.73 575.78 1001.13 C573.59 1002.44 573.59 1002.44 571.78 1003.13 C571.78 1004.12 571.78 1005.11 571.78 1006.13 C570.78 1007.13 569.78 1008.13 568.78 1009.13 C567.59 1011.73 567.59 1011.73 566.78 1014.13 C566.12 1014.13 565.46 1014.13 564.78 1014.13 C564.72 1014.66 564.66 1015.2 564.59 1015.75 C563.62 1018.58 561.99 1020.4 560.03 1022.63 C558.64 1024.2 558.64 1024.2 557.41 1026.56 C555.45 1029.65 553.04 1031.89 550.42 1034.42 C548.6 1036.18 548.6 1036.18 547.09 1038.94 C545.78 1041.13 545.78 1041.13 543.78 1041.94 C541.36 1043.08 541.36 1043.08 540.6 1046.74 C538.78 1051.86 535.53 1054.88 531.59 1058.5 C530.3 1059.71 529.02 1060.93 527.74 1062.15 C527.17 1062.68 526.6 1063.2 526.02 1063.74 C524.56 1065.07 524.56 1065.07 524.78 1067.13 C524.12 1067.13 523.46 1067.13 522.78 1067.13 C522.54 1067.69 522.3 1068.26 522.05 1068.84 C520.53 1071.58 518.71 1073.45 516.5 1075.66 C515.62 1076.56 514.73 1077.45 513.82 1078.36 C512.85 1079.33 511.89 1080.29 510.92 1081.26 C509.92 1082.25 508.93 1083.25 507.93 1084.24 C505.85 1086.33 503.77 1088.41 501.68 1090.49 C499.01 1093.15 496.35 1095.82 493.69 1098.49 C491.64 1100.54 489.58 1102.6 487.53 1104.65 C486.54 1105.63 485.56 1106.61 484.58 1107.6 C483.21 1108.98 481.83 1110.35 480.45 1111.72 C479.27 1112.89 479.27 1112.89 478.08 1114.08 C475.77 1116.13 473.45 1117.6 470.78 1119.13 C469.01 1120.71 469.01 1120.71 467.44 1122.45 C466.85 1123.06 466.26 1123.68 465.66 1124.32 C464.45 1125.61 463.24 1126.91 462.04 1128.21 C458.36 1132.04 456.26 1133.66 450.78 1134.13 C449.46 1136.52 449.46 1136.52 448.78 1139.13 C446.78 1141.13 446.78 1141.13 444.42 1141.99 C441.38 1143.3 439.74 1144.86 437.47 1147.25 C436.77 1147.98 436.07 1148.7 435.35 1149.45 C434.84 1150 434.32 1150.56 433.78 1151.13 C431.78 1150.13 431.78 1150.13 430.78 1149.13 C430.78 1150.12 430.78 1151.11 430.78 1152.13 C430.12 1152.13 429.46 1152.13 428.78 1152.13 C428.53 1152.75 428.29 1153.36 428.03 1154 C426.55 1156.52 425.53 1157.21 422.78 1158.13 C421.79 1157.8 420.8 1157.47 419.78 1157.13 C420.11 1158.12 420.44 1159.11 420.78 1160.13 C419.73 1160.52 418.68 1160.91 417.59 1161.31 C413.16 1163.21 410.45 1166.25 407.28 1169.81 C404.82 1171.97 402.05 1173.13 398.78 1173.13 C397.98 1173.93 397.17 1174.74 396.34 1175.56 C393.78 1178.13 393.78 1178.13 390.78 1179.13 C390.12 1179.62 389.46 1180.12 388.78 1180.63 C386.78 1182.13 386.78 1182.13 383.78 1183.13 C383 1183.95 382.21 1184.78 381.41 1185.63 C378.68 1188.22 377.44 1188.81 373.78 1189.13 C373.78 1189.79 373.78 1190.45 373.78 1191.13 C372.13 1191.46 370.48 1191.79 368.78 1192.13 C368.45 1193.12 368.12 1194.11 367.78 1195.13 C361.67 1198.13 361.67 1198.13 358.78 1198.13 C358.12 1199.12 357.46 1200.11 356.78 1201.13 C351.73 1203.13 351.73 1203.13 348.78 1203.13 C348.12 1204.12 347.46 1205.11 346.78 1206.13 C341.73 1208.13 341.73 1208.13 338.78 1208.13 C338.12 1209.12 337.46 1210.11 336.78 1211.13 C331.73 1213.13 331.73 1213.13 328.78 1213.13 C328.12 1214.12 327.46 1215.11 326.78 1216.13 C321.73 1218.13 321.73 1218.13 318.78 1218.13 C318.12 1219.12 317.46 1220.11 316.78 1221.13 C311.73 1223.13 311.73 1223.13 308.78 1223.13 C308.12 1224.12 307.46 1225.11 306.78 1226.13 C304.69 1226.89 304.69 1226.89 302.28 1227.38 C301.09 1227.63 301.09 1227.63 299.87 1227.89 C297.78 1228.13 297.78 1228.13 295.78 1227.13 C295.78 1227.79 295.78 1228.45 295.78 1229.13 C295.12 1229.13 294.46 1229.13 293.78 1229.13 C293.78 1229.79 293.78 1230.45 293.78 1231.13 C289.85 1233.19 286.02 1234.8 281.78 1236.13 C280.71 1236.52 279.64 1236.91 278.53 1237.31 C275.78 1238.13 275.78 1238.13 273.78 1237.13 C273.78 1237.79 273.78 1238.45 273.78 1239.13 C271.66 1239.82 269.53 1240.51 267.41 1241.19 C266.22 1241.57 265.04 1241.96 263.82 1242.35 C260.78 1243.13 260.78 1243.13 258.78 1242.13 C258.78 1242.79 258.78 1243.45 258.78 1244.13 C254.42 1246.13 250.62 1247.68 245.78 1248.13 C245.12 1247.8 244.46 1247.47 243.78 1247.13 C243.78 1247.79 243.78 1248.45 243.78 1249.13 C239.42 1251.13 235.62 1252.68 230.78 1253.13 C230.12 1252.8 229.46 1252.47 228.78 1252.13 C228.78 1252.79 228.78 1253.45 228.78 1254.13 C224.6 1256.08 220.39 1256.86 215.89 1257.66 C213.8 1257.92 213.8 1257.92 212.78 1259.13 C210.72 1259.45 208.66 1259.64 206.59 1259.85 C204.76 1259.95 204.76 1259.95 203.78 1261.13 C201.91 1261.45 200.03 1261.74 198.16 1262 C194.47 1262.58 191.71 1263.16 188.28 1264.69 C183.94 1266.47 180.01 1266.67 175.35 1266.92 C172.79 1266.96 172.79 1266.96 170.78 1268.13 C170.12 1267.8 169.46 1267.47 168.78 1267.13 C168.78 1267.79 168.78 1268.45 168.78 1269.13 C168 1269.19 167.22 1269.25 166.41 1269.31 C165.4 1269.39 164.39 1269.48 163.34 1269.56 C162.33 1269.65 161.32 1269.73 160.28 1269.81 C157.84 1269.86 157.84 1269.86 156.78 1271.13 C154.47 1271.34 152.16 1271.5 149.84 1271.63 C145.15 1271.73 145.15 1271.73 140.78 1273.13 C140.12 1272.8 139.46 1272.47 138.78 1272.13 C138.78 1272.79 138.78 1273.45 138.78 1274.13 C137.67 1274.19 136.56 1274.25 135.42 1274.31 C133.96 1274.4 132.49 1274.48 131.03 1274.56 C130.3 1274.6 129.57 1274.64 128.82 1274.68 C124.78 1274.9 124.78 1274.9 120.82 1275.63 C118.59 1276.17 116.58 1276.29 114.3 1276.34 C113.44 1276.37 112.59 1276.39 111.71 1276.42 C109.94 1276.48 108.17 1276.52 106.4 1276.56 C105.54 1276.59 104.68 1276.62 103.8 1276.65 C103.03 1276.67 102.25 1276.69 101.46 1276.71 C98.55 1277.05 98.55 1277.05 95.17 1278.63 C90.68 1280.34 86.7 1280.55 81.94 1280.5 C80.67 1280.5 80.67 1280.5 79.38 1280.51 C76.61 1280.52 73.84 1280.5 71.07 1280.49 C69.13 1280.49 67.19 1280.49 65.25 1280.49 C61.19 1280.49 57.13 1280.48 53.07 1280.46 C47.89 1280.44 42.71 1280.44 37.53 1280.45 C33.52 1280.45 29.52 1280.44 25.51 1280.43 C23.6 1280.43 21.69 1280.43 19.78 1280.43 C17.11 1280.43 14.43 1280.42 11.75 1280.4 C10.98 1280.4 10.2 1280.41 9.4 1280.41 C-4.07 1280.28 -4.07 1280.28 -7.22 1277.13 C-8.91 1276.98 -10.61 1276.9 -12.31 1276.85 C-13.86 1276.79 -13.86 1276.79 -15.43 1276.73 C-16.52 1276.7 -17.6 1276.66 -18.72 1276.63 C-20.86 1276.56 -22.99 1276.49 -25.13 1276.41 C-26.55 1276.36 -26.55 1276.36 -28.01 1276.32 C-30.22 1276.13 -30.22 1276.13 -31.22 1275.13 C-34.37 1274.89 -37.52 1274.73 -40.67 1274.61 C-44.34 1274.42 -46.09 1274.21 -49.22 1272.13 C-51.59 1271.86 -53.96 1271.68 -56.34 1271.56 C-63.12 1271.22 -63.12 1271.22 -64.22 1270.13 C-66.07 1269.89 -67.92 1269.71 -69.78 1269.56 C-70.79 1269.48 -71.81 1269.4 -72.85 1269.31 C-74.02 1269.22 -74.02 1269.22 -75.22 1269.13 C-75.22 1268.47 -75.22 1267.81 -75.22 1267.13 C-76.21 1267.46 -77.2 1267.79 -78.22 1268.13 C-78.55 1267.8 -78.88 1267.47 -79.22 1267.13 C-80.92 1266.94 -82.63 1266.8 -84.34 1266.69 C-88.91 1266.32 -92.88 1265.57 -97.22 1264.13 C-97.22 1263.47 -97.22 1262.81 -97.22 1262.13 C-98.21 1262.46 -99.2 1262.79 -100.22 1263.13 C-102.66 1262.82 -102.66 1262.82 -105.34 1262.25 C-106.23 1262.07 -107.12 1261.89 -108.04 1261.7 C-110.22 1261.13 -110.22 1261.13 -111.22 1260.13 C-113.22 1259.9 -115.21 1259.68 -117.21 1259.51 C-119.22 1259.13 -119.22 1259.13 -122.22 1257.13 C-124.52 1256.53 -124.52 1256.53 -127.03 1256.13 C-130.91 1255.4 -134.5 1254.47 -138.22 1253.13 C-139.72 1252.62 -141.22 1252.12 -142.72 1251.63 C-143.48 1251.37 -144.25 1251.12 -145.03 1250.85 C-146.92 1250.23 -148.82 1249.61 -150.72 1249 C-153.22 1248.13 -153.22 1248.13 -154.22 1247.13 C-156.63 1246.63 -159.05 1246.23 -161.48 1245.82 C-164.68 1245.01 -167.28 1243.61 -170.22 1242.13 C-172.37 1241.42 -174.54 1240.75 -176.72 1240.13 C-181.19 1238.85 -185.09 1237.24 -189.22 1235.13 C-190.88 1234.78 -192.55 1234.44 -194.22 1234.13 C-195.21 1233.47 -196.2 1232.81 -197.22 1232.13 C-198.89 1231.49 -200.58 1230.89 -202.28 1230.31 C-207.85 1228.34 -212.99 1225.86 -218.22 1223.13 C-223.46 1220.42 -228.63 1217.86 -234.19 1215.88 C-237.95 1214.48 -241.58 1212.79 -245.22 1211.13 C-245.22 1210.47 -245.22 1209.81 -245.22 1209.13 C-246.15 1209.02 -247.08 1208.92 -248.03 1208.81 C-251.44 1208.08 -252.02 1207.62 -254.22 1205.13 C-256.77 1203.45 -259.1 1202.17 -261.97 1201.13 C-262.71 1200.8 -263.45 1200.47 -264.22 1200.13 C-264.55 1199.14 -264.88 1198.15 -265.22 1197.13 C-266.21 1197.46 -267.2 1197.79 -268.22 1198.13 C-271.34 1196.88 -271.34 1196.88 -274.22 1195.13 C-274.55 1194.14 -274.88 1193.15 -275.22 1192.13 C-277.15 1191.25 -277.15 1191.25 -279.47 1190.69 C-283.5 1189.47 -286.04 1187.95 -289.22 1185.13 C-292.76 1182.86 -296.44 1180.97 -300.22 1179.13 C-300.22 1178.47 -300.22 1177.81 -300.22 1177.13 C-301.61 1176.72 -301.61 1176.72 -303.03 1176.31 C-306.14 1175.16 -307.03 1174.41 -309.22 1172.13 C-310.88 1171.45 -312.55 1170.79 -314.22 1170.13 C-314.55 1169.47 -314.88 1168.81 -315.22 1168.13 C-316.79 1166.99 -316.79 1166.99 -318.72 1165.88 C-331.35 1158.17 -331.35 1158.17 -336.22 1153.13 C-337.15 1152.67 -337.15 1152.67 -338.11 1152.21 C-340.97 1150.74 -343.07 1148.71 -345.44 1146.56 C-347.27 1145.08 -349.08 1144.1 -351.22 1143.13 C-351.22 1142.47 -351.22 1141.81 -351.22 1141.13 C-351.76 1140.9 -352.29 1140.67 -352.84 1140.44 C-355.97 1138.71 -358.54 1136.46 -361.22 1134.13 C-361.88 1133.56 -362.53 1133 -363.21 1132.42 C-366.19 1129.84 -369.06 1127.29 -371.78 1124.44 C-374.72 1121.65 -377.65 1120.02 -381.22 1118.13 C-381.22 1117.47 -381.22 1116.81 -381.22 1116.13 C-382.21 1116.13 -383.2 1116.13 -384.22 1116.13 C-384.22 1115.14 -384.22 1114.15 -384.22 1113.13 C-385.21 1112.8 -386.2 1112.47 -387.22 1112.13 C-389.36 1110.1 -391.42 1108.06 -393.47 1105.94 C-397.04 1102.28 -400.58 1098.69 -404.53 1095.44 C-405.42 1094.68 -406.31 1093.91 -407.22 1093.13 C-407.22 1092.47 -407.22 1091.81 -407.22 1091.13 C-408.21 1090.8 -409.2 1090.47 -410.22 1090.13 C-411.87 1088.46 -411.87 1088.46 -413.59 1086.38 C-417.03 1082.32 -420.67 1078.59 -424.53 1074.94 C-426.22 1073.13 -426.22 1073.13 -426.22 1071.13 C-426.8 1070.9 -427.37 1070.67 -427.97 1070.44 C-430.82 1068.78 -432.34 1066.81 -434.22 1064.13 C-434.22 1063.47 -434.22 1062.81 -434.22 1062.13 C-434.88 1061.8 -435.54 1061.47 -436.22 1061.13 C-437.21 1060.05 -438.16 1058.94 -439.09 1057.81 C-440.87 1055.69 -442.61 1053.75 -444.59 1051.81 C-446.22 1050.13 -446.22 1050.13 -446.22 1048.13 C-447.21 1047.8 -448.2 1047.47 -449.22 1047.13 C-449.91 1045.06 -449.91 1045.06 -450.22 1043.13 C-450.88 1043.13 -451.54 1043.13 -452.22 1043.13 C-452.88 1041.48 -453.54 1039.83 -454.22 1038.13 C-454.88 1038.13 -455.54 1038.13 -456.22 1038.13 C-458.29 1035.79 -460.02 1033.46 -461.59 1030.77 C-463.89 1027.04 -466.69 1023.8 -469.48 1020.43 C-471.22 1018.13 -471.22 1018.13 -472.22 1015.13 C-473.21 1014.47 -474.2 1013.81 -475.22 1013.13 C-476.26 1011.48 -477.25 1009.81 -478.22 1008.13 C-480.05 1005.54 -481.92 1002.99 -483.79 1000.43 C-485.22 998.13 -485.22 998.13 -485.22 995.13 C-486.21 994.8 -487.2 994.47 -488.22 994.13 C-488.89 992.46 -489.55 990.79 -490.22 989.13 C-491.86 987.11 -493.53 985.11 -495.22 983.13 C-497.2 980.15 -498.57 977.65 -499.22 974.13 C-499.88 974.13 -500.54 974.13 -501.22 974.13 C-501.78 972.97 -502.33 971.82 -502.91 970.63 C-504.31 967.81 -505.81 965.14 -507.53 962.5 C-511.72 955.97 -515.07 948.82 -518.3 941.77 C-519.12 939.94 -519.12 939.94 -521.22 939.13 C-522.45 936.98 -523.57 934.85 -524.66 932.63 C-524.97 932 -525.28 931.37 -525.6 930.72 C-527.92 925.96 -529.73 921.21 -531.22 916.13 C-531.88 916.13 -532.54 916.13 -533.22 916.13 C-533.59 914.93 -533.96 913.73 -534.34 912.5 C-536.79 905.16 -539.98 898.11 -543.15 891.06 C-549.93 875.91 -556.72 860.4 -561.28 844.42 C-562.13 841.19 -562.13 841.19 -563.34 838.44 C-564.22 836.13 -564.22 836.13 -564.22 832.13 C-564.88 831.8 -565.54 831.47 -566.22 831.13 C-566.36 830.1 -566.51 829.06 -566.66 828 C-567.15 824.61 -567.98 822.21 -569.39 819.13 C-571.78 813.34 -573.22 807.23 -573.78 801 C-573.93 799.72 -574.07 798.44 -574.22 797.13 C-574.88 796.8 -575.54 796.47 -576.22 796.13 C-576.6 794.31 -576.6 794.31 -576.78 792.13 C-576.85 789.34 -576.85 789.34 -578.22 787.13 C-578.55 785.64 -578.83 784.14 -579.09 782.64 C-579.25 781.71 -579.41 780.78 -579.58 779.83 C-579.83 778.34 -579.83 778.34 -580.09 776.81 C-581.16 770.75 -582.21 764.75 -583.84 758.81 C-585.26 753.52 -585.87 748.21 -586.45 742.78 C-587.17 736.1 -588.31 729.53 -589.54 722.93 C-590.93 715.16 -591.51 707.58 -591.83 699.71 C-591.86 698.9 -591.9 698.08 -591.94 697.23 C-591.97 696.49 -592 695.75 -592.03 694.99 C-592.12 693.03 -592.12 693.03 -593.22 691.13 C-593.31 689.76 -593.35 688.39 -593.35 687.02 C-593.35 686.16 -593.35 685.3 -593.36 684.41 C-593.35 683.46 -593.35 682.52 -593.35 681.54 C-593.35 680.54 -593.35 679.55 -593.35 678.52 C-593.36 675.22 -593.36 671.92 -593.35 668.61 C-593.35 666.32 -593.35 664.03 -593.36 661.74 C-593.36 656.92 -593.35 652.11 -593.35 647.3 C-593.34 641.13 -593.35 634.97 -593.35 628.8 C-593.36 624.07 -593.36 619.33 -593.35 614.59 C-593.35 612.32 -593.35 610.05 -593.36 607.78 C-593.36 604.59 -593.35 601.41 -593.35 598.23 C-593.35 597.29 -593.35 596.35 -593.36 595.39 C-593.34 590.85 -593.12 586.6 -592.22 582.13 C-592.1 580.79 -592 579.45 -591.94 578.11 C-591.9 577.42 -591.86 576.72 -591.83 576.01 C-591.75 574.57 -591.68 573.13 -591.61 571.7 C-591.32 566.33 -591.32 566.33 -590.22 564.13 C-590.04 562.15 -589.9 560.17 -589.78 558.19 C-589.42 552.95 -588.71 547.93 -587.7 542.78 C-586.94 538.59 -586.57 534.37 -586.22 530.13 C-585.56 530.13 -584.9 530.13 -584.22 530.13 C-584.25 528.91 -584.25 528.91 -584.29 527.68 C-584.32 526.07 -584.32 526.07 -584.34 524.44 C-584.37 523.38 -584.39 522.33 -584.41 521.24 C-584.22 518.06 -583.46 516.03 -582.22 513.13 C-581.78 510.69 -581.78 510.69 -581.59 508.31 C-581.52 507.52 -581.45 506.73 -581.37 505.92 C-581.32 505.33 -581.27 504.74 -581.22 504.13 C-580.56 504.13 -579.9 504.13 -579.22 504.13 C-579.24 503.54 -579.27 502.94 -579.29 502.33 C-579.4 497.66 -579.1 494.45 -577.22 490.13 C-576.99 488.16 -576.77 486.19 -576.56 484.21 C-576.11 481.48 -575.08 479.03 -574.05 476.47 C-571.94 470.5 -570.64 464.11 -569.76 457.85 C-569.22 455.13 -569.22 455.13 -567.22 453.13 C-566.65 451.19 -566.16 449.22 -565.72 447.25 C-564.89 443.57 -563.98 440.46 -562.22 437.13 C-561.54 434.8 -560.88 432.46 -560.22 430.13 C-559.57 428.45 -558.91 426.78 -558.22 425.13 C-557.33 422.45 -556.74 419.89 -556.22 417.13 C-555.89 417.13 -555.56 417.13 -555.22 417.13 C-554.93 416.12 -554.64 415.11 -554.34 414.06 C-553.3 410.42 -552.26 406.77 -551.22 403.13 C-550.56 403.13 -549.9 403.13 -549.22 403.13 C-549.12 402.47 -549.01 401.81 -548.91 401.13 C-548.18 397.94 -547.12 395.03 -545.94 391.99 C-545.32 390.39 -544.76 388.76 -544.22 387.13 C-543.56 386.47 -542.9 385.81 -542.22 385.13 C-541.57 382.56 -541.57 382.56 -541.22 380.13 C-540.56 380.13 -539.9 380.13 -539.22 380.13 C-539.22 378.81 -539.22 377.49 -539.22 376.13 C-538.56 376.13 -537.9 376.13 -537.22 376.13 C-537.14 375.1 -537.05 374.06 -536.97 373 C-536.15 368.76 -534.68 366.63 -532.22 363.13 C-530.98 359.9 -530.98 359.9 -530.22 357.13 C-529.56 357.13 -528.9 357.13 -528.22 357.13 C-528.11 356.49 -528 355.85 -527.89 355.19 C-527.65 353.95 -527.65 353.95 -527.41 352.69 C-527.26 351.87 -527.11 351.04 -526.95 350.19 C-526.71 349.51 -526.47 348.83 -526.22 348.13 C-525.23 347.8 -524.24 347.47 -523.22 347.13 C-522.34 345.3 -522.34 345.3 -521.78 343.06 C-520.39 338.43 -518.47 334.4 -516.22 330.13 C-515.56 330.13 -514.9 330.13 -514.22 330.13 C-514.08 329.51 -513.93 328.89 -513.78 328.25 C-513.22 326.13 -513.22 326.13 -512.22 324.13 C-511.75 323.14 -511.27 322.15 -510.78 321.13 C-509.22 318.13 -509.22 318.13 -507.22 316.13 C-506.58 314.94 -505.98 313.73 -505.41 312.5 C-503.32 308.24 -501.15 303.88 -498.22 300.13 C-497.56 300.13 -496.9 300.13 -496.22 300.13 C-496.12 299.36 -496.01 298.6 -495.91 297.81 C-495.14 294.83 -494.42 294.16 -492.22 292.13 C-490.45 289.55 -489.3 287.75 -488.91 284.63 C-488.03 281.44 -486.28 280.4 -483.71 278.46 C-481.45 276.44 -480.51 273.83 -479.22 271.13 C-478.23 270.8 -477.24 270.47 -476.22 270.13 C-476.14 269.22 -476.05 268.31 -475.97 267.38 C-475.12 263.71 -474.14 262.43 -471.22 260.13 C-470.56 260.13 -469.9 260.13 -469.22 260.13 C-469.16 259.41 -469.1 258.68 -469.03 257.94 C-467.96 254.24 -466.11 252.6 -463.22 250.13 C-462.56 250.13 -461.9 250.13 -461.22 250.13 C-461.12 249.55 -461.01 248.97 -460.91 248.38 C-459.92 245.13 -458.14 242.97 -455.66 240.69 C-454.06 239.18 -454.06 239.18 -453.5 236.9 C-451.81 233.23 -449.19 230.85 -446.28 228.13 C-442.6 224.66 -439.75 221.56 -437.22 217.13 C-436.56 216.8 -435.9 216.47 -435.22 216.13 C-434.89 215.14 -434.56 214.15 -434.22 213.13 C-432.59 211.4 -430.93 209.77 -429.22 208.13 C-427.93 206.84 -426.65 205.54 -425.37 204.24 C-423.97 202.83 -422.56 201.42 -421.16 200 C-420.45 199.29 -419.74 198.57 -419.01 197.83 C-418.33 197.14 -417.64 196.45 -416.93 195.74 C-416.32 195.12 -415.7 194.5 -415.06 193.86 C-413.22 192.13 -413.22 192.13 -411.05 190.53 C-409.08 189.23 -409.08 189.23 -408.16 187 C-407.22 185.13 -407.22 185.13 -404.22 184.13 C-402.81 182.74 -402.81 182.74 -401.41 180.94 C-383.55 159.89 -383.55 159.89 -372.78 153.73 C-369.98 151.98 -368.03 150.03 -365.78 147.63 C-362.44 144.19 -359.6 142.12 -355.22 140.13 C-353.51 138.5 -351.84 136.84 -350.22 135.13 C-346.7 132.13 -346.7 132.13 -343.22 132.13 C-342.95 131.53 -342.68 130.93 -342.41 130.31 C-340.72 127.21 -339.34 125.53 -335.97 124.31 C-332.64 122.88 -330.49 120.85 -327.87 118.37 C-326.22 117.13 -326.22 117.13 -323.22 117.13 C-323.01 116.53 -322.81 115.93 -322.59 115.31 C-320.7 112.3 -318.42 111.6 -315.22 110.13 C-314.14 109.29 -314.14 109.29 -313.03 108.44 C-311.22 107.13 -311.22 107.13 -308.22 107.13 C-308.01 106.53 -307.81 105.93 -307.59 105.31 C-305.71 102.31 -303.39 101.61 -300.22 100.13 C-299.68 99.57 -299.15 99.01 -298.59 98.44 C-297.22 97.13 -297.22 97.13 -293.22 97.13 C-292.91 96.17 -292.91 96.17 -292.59 95.19 C-291.22 93.13 -291.22 93.13 -288.09 92.38 C-287.15 92.29 -286.2 92.21 -285.22 92.13 C-285.22 91.47 -285.22 90.81 -285.22 90.13 C-283.59 89.07 -281.92 88.07 -280.22 87.13 C-278.73 86.14 -278.73 86.14 -277.22 85.13 C-275.9 85.13 -274.58 85.13 -273.22 85.13 C-273.22 84.47 -273.22 83.81 -273.22 83.13 C-271.57 82.8 -269.92 82.47 -268.22 82.13 C-268.22 81.47 -268.22 80.81 -268.22 80.13 C-267.27 79.67 -266.32 79.22 -265.34 78.75 C-262.22 77.32 -262.22 77.32 -260.22 75.13 C-258.56 74.45 -256.89 73.79 -255.22 73.13 C-254.39 72.63 -253.57 72.14 -252.72 71.63 C-250.27 70.16 -247.87 69.19 -245.22 68.13 C-244.37 67.61 -243.53 67.1 -242.66 66.56 C-240.42 65.24 -238.7 64.75 -236.22 64.13 C-235.89 63.47 -235.56 62.81 -235.22 62.13 C-233.15 61.13 -233.15 61.13 -230.53 60.13 C-229.63 59.78 -228.73 59.44 -227.8 59.08 C-219.8 56.13 -219.8 56.13 -217.22 56.13 C-217.22 55.47 -217.22 54.81 -217.22 54.13 C-213.85 52.63 -212.02 52.13 -208.22 52.13 C-208.22 51.47 -208.22 50.81 -208.22 50.13 C-206.24 49.47 -204.26 48.81 -202.22 48.13 C-202.22 47.8 -202.22 47.47 -202.22 47.13 C-201.19 46.86 -200.16 46.59 -199.09 46.31 C-196.5 45.59 -194.58 44.79 -192.16 43.5 C-188.91 41.98 -186.75 41.87 -183.22 42.13 C-183.22 41.47 -183.22 40.81 -183.22 40.13 C-180.91 39.47 -178.6 38.81 -176.22 38.13 C-176.22 37.8 -176.22 37.47 -176.22 37.13 C-175.37 36.87 -174.53 36.62 -173.66 36.36 C-172.52 36.01 -171.39 35.67 -170.22 35.31 C-169.11 34.98 -167.99 34.64 -166.84 34.29 C-164.33 33.48 -161.91 32.64 -159.45 31.68 C-154.57 29.82 -149.56 28.45 -144.53 27.06 C-139.32 25.62 -134.23 24.18 -129.22 22.13 C-128.15 21.98 -127.07 21.84 -125.97 21.69 C-122.12 21.11 -118.86 20.03 -115.24 18.65 C-113.22 18.13 -113.22 18.13 -110.22 19.13 C-110.22 18.47 -110.22 17.81 -110.22 17.13 C-109.17 17 -108.12 16.88 -107.03 16.75 C-103.38 16.32 -103.38 16.32 -100.84 15.06 C-96.99 13.69 -93.27 13.97 -89.22 14.13 C-89.22 13.47 -89.22 12.81 -89.22 12.13 C-88.22 12.08 -87.22 12.03 -86.19 11.98 C-84.9 11.9 -83.61 11.83 -82.28 11.75 C-80.99 11.68 -79.71 11.61 -78.38 11.54 C-77.34 11.4 -76.29 11.27 -75.22 11.13 C-74.89 10.47 -74.56 9.81 -74.22 9.13 C-71.75 8.75 -71.75 8.75 -68.72 8.56 C-65.16 8.63 -65.16 8.63 -62.22 7.13 C-60.37 6.94 -58.51 6.8 -56.66 6.69 C-53.08 6.42 -49.73 6.13 -46.28 5.13 C-41.59 3.79 -36.82 3.65 -31.98 3.37 C-29.26 3.3 -29.26 3.3 -27.22 2.13 C-25.73 1.99 -24.24 1.9 -22.75 1.85 C-21.43 1.79 -21.43 1.79 -20.08 1.73 C-18.7 1.68 -18.7 1.68 -17.28 1.63 C-15.46 1.56 -13.64 1.49 -11.82 1.41 C-11.01 1.38 -10.2 1.35 -9.36 1.32 C-6.09 1.03 -3.34 0 0 0 Z M-487.22 283.13 C-486.22 285.13 -486.22 285.13 -486.22 285.13 Z M593.78 309.13 C594.78 311.13 594.78 311.13 594.78 311.13 Z M603.78 326.13 C604.78 328.13 604.78 328.13 604.78 328.13 Z M608.78 336.13 C609.78 338.13 609.78 338.13 609.78 338.13 Z M628.78 376.13 C629.78 378.13 629.78 378.13 629.78 378.13 Z M658.78 456.13 C659.78 458.13 659.78 458.13 659.78 458.13 Z M653.78 833.13 C654.78 835.13 654.78 835.13 654.78 835.13 Z M653.78 837.13 C654.78 839.13 654.78 839.13 654.78 839.13 Z M648.78 848.13 C649.78 850.13 649.78 850.13 649.78 850.13 Z M648.78 852.13 C649.78 854.13 649.78 854.13 649.78 854.13 Z M643.78 863.13 C644.78 865.13 644.78 865.13 644.78 865.13 Z M633.78 889.13 C634.78 891.13 634.78 891.13 634.78 891.13 Z M598.78 959.13 C599.78 961.13 599.78 961.13 599.78 961.13 Z M593.78 969.13 C594.78 971.13 594.78 971.13 594.78 971.13 Z M583.78 984.13 C584.78 986.13 584.78 986.13 584.78 986.13 Z M455.78 1130.13 C456.78 1132.13 456.78 1132.13 456.78 1132.13 Z M363.78 1192.13 C364.11 1192.79 364.44 1193.45 364.78 1194.13 C365.44 1193.47 366.1 1192.81 366.78 1192.13 C365.79 1192.13 364.8 1192.13 363.78 1192.13 Z " fill="#00A994" transform="translate(593.2196197509766,-0.126983642578125)"/>
<path d="M0 0 C8.24 7.62 14.27 17.9 14.84 29.23 C15.1 44.18 13.15 54.41 2.5 65.56 C-6.89 74.84 -18.3 77.05 -31.17 77.06 C-32.16 77.04 -32.16 77.04 -33.18 77.03 C-35.2 77 -37.22 77.01 -39.24 77.02 C-55.16 76.92 -67.23 71.97 -78.5 60.56 C-79.16 59.57 -79.82 58.58 -80.5 57.56 C-94.03 59.29 -105.6 68.53 -114.3 78.58 C-116.81 81.99 -118.87 85.43 -120.81 89.19 C-121.13 89.78 -121.44 90.37 -121.76 90.97 C-129.55 106.97 -129.1 123.79 -129.11 141.16 C-129.12 143.8 -129.14 146.45 -129.16 149.09 C-129.2 155.3 -129.22 161.51 -129.23 167.72 C-129.25 174.79 -129.29 181.87 -129.33 188.95 C-129.41 203.49 -129.46 218.03 -129.5 232.56 C-128.72 232.86 -127.93 233.17 -127.12 233.48 C-119.04 236.82 -112.56 245.07 -108.5 252.56 C-105.27 261.1 -103.92 268.82 -104 277.9 C-104 279.06 -103.99 280.22 -103.98 281.41 C-103.98 283.91 -103.98 286.4 -103.98 288.89 C-104 292.85 -103.99 296.82 -103.97 300.78 C-103.94 308.5 -103.94 316.21 -103.94 323.92 C-103.94 333.71 -103.93 343.5 -103.89 353.29 C-103.87 357.83 -103.88 362.37 -103.89 366.92 C-103.87 384.45 -103.44 402.49 -97.44 419.19 C-97.14 420.04 -96.85 420.89 -96.54 421.76 C-91.73 435.04 -85.23 448.21 -75.5 458.56 C-75.04 459.06 -74.58 459.57 -74.1 460.08 C-56.5 479.05 -33.69 491.77 -8.5 497.56 C-7.37 497.82 -7.37 497.82 -6.22 498.09 C27.42 505.49 66.11 500.26 95.69 482.23 C123.54 464.41 140.66 438.56 147.97 406.5 C151.02 390.15 150.64 373.43 150.64 356.86 C150.64 350.52 150.67 344.17 150.7 337.82 C150.73 329.8 150.75 321.77 150.75 313.74 C150.75 307.21 150.77 300.67 150.81 294.13 C150.82 291.66 150.82 289.19 150.82 286.71 C150.77 269.01 151.49 254.07 164.5 240.56 C166.39 239.61 168.3 238.67 170.2 237.74 C173.2 235.59 175.12 233.96 176.12 230.33 C177.12 223.09 176.78 215.78 176.61 208.5 C176.59 206.11 176.58 203.71 176.57 201.32 C176.53 195.02 176.43 188.72 176.31 182.42 C176.21 176.05 176.17 169.69 176.12 163.32 C177.44 113.14 177.44 113.14 154.34 70.23 C148.77 64.94 142.59 61.45 135.5 58.56 C134.77 58.25 134.03 57.94 133.27 57.62 C131.03 56.84 131.03 56.84 127.5 57.56 C125 59.84 122.92 62.3 120.78 64.91 C114.28 72.46 105.68 76.08 95.85 76.85 C92.44 76.95 89.04 76.98 85.62 76.95 C83.5 76.94 81.39 76.95 79.27 76.97 C63.78 77 53.14 72.7 41.56 62.25 C34.32 54.51 30.93 42.77 31.19 32.33 C32.57 20.05 38.22 8.87 47.16 0.38 C61.17 -10.5 77.81 -11.43 94.78 -10.2 C106.95 -8.61 116.84 -3.02 124.5 6.56 C125.65 8.49 126.77 10.42 127.88 12.38 C131.01 17.52 133.58 19 139.28 20.62 C156.47 25.65 170.95 34.99 183.5 47.56 C184.24 48.29 184.98 49.02 185.75 49.77 C209.71 74.94 212.83 106.38 212.7 139.4 C212.69 142.09 212.69 144.78 212.69 147.48 C212.68 153.81 212.66 160.13 212.64 166.46 C212.62 173.68 212.61 180.89 212.6 188.1 C212.58 202.92 212.54 217.74 212.5 232.56 C213.28 232.86 214.06 233.16 214.86 233.47 C223.95 237.24 230.8 246.71 234.5 255.56 C237.14 263.84 237.94 271.6 237.89 280.25 C237.9 282.06 237.9 282.06 237.9 283.9 C237.91 287.18 237.91 290.46 237.9 293.74 C237.9 297.21 237.9 300.68 237.91 304.15 C237.91 309.99 237.91 315.83 237.89 321.67 C237.87 328.35 237.88 335.02 237.9 341.7 C237.91 347.49 237.91 353.28 237.9 359.07 C237.9 362.51 237.9 365.94 237.91 369.37 C238 416.37 230.6 463.23 201.5 501.56 C200.86 502.42 200.21 503.27 199.55 504.15 C194.25 510.96 188.42 517.29 182.5 523.56 C181.77 524.35 181.04 525.13 180.29 525.94 C169.81 536.84 157.27 545.56 144.5 553.56 C143.9 553.94 143.3 554.32 142.68 554.71 C113.05 573.16 77.95 581.78 43.5 584.56 C44.25 623.5 60.72 664.95 84.5 695.56 C85.12 696.38 85.75 697.19 86.39 698.03 C117.11 737.41 160.72 764.02 210.5 770.56 C215.18 771.11 219.8 771.44 224.5 771.56 C225.72 771.6 226.94 771.64 228.2 771.68 C278.44 772.53 322.14 752.76 358.34 718.91 C364.22 713.18 369.45 707.03 374.5 700.56 C375.25 699.6 376.01 698.64 376.78 697.66 C382.21 690.59 387.05 683.28 391.5 675.56 C392.03 674.65 392.03 674.65 392.58 673.72 C412.26 639.67 419.71 600.53 419.61 561.59 C419.61 559.92 419.61 558.24 419.61 556.56 C419.61 552.05 419.61 547.53 419.6 543.02 C419.6 538.29 419.59 533.55 419.59 528.82 C419.59 519.87 419.58 510.93 419.57 501.98 C419.56 491.79 419.56 481.6 419.55 471.41 C419.54 450.46 419.52 429.51 419.5 408.56 C418.89 408.5 418.28 408.44 417.66 408.37 C416.85 408.29 416.05 408.2 415.22 408.12 C414.43 408.03 413.63 407.95 412.82 407.87 C395.27 405.56 378.73 394.69 365.5 383.56 C364.63 382.86 363.76 382.15 362.86 381.42 C342.8 364.41 330.04 338.65 327.5 312.56 C325.17 278.15 335.83 248.54 358.23 222.55 C376.77 202.87 405.49 189.31 432.43 188.29 C462.76 187.6 491.58 196.1 514.05 217.17 C536.21 238.44 549.13 266.42 549.78 297.16 C550.08 329.01 539.67 356.36 517.5 379.56 C502.58 394.01 479.22 409.56 457.5 409.56 C457.5 410.87 457.5 410.87 457.49 412.21 C457.43 433.56 457.36 454.92 457.26 476.28 C457.22 486.6 457.18 496.93 457.15 507.26 C457.13 516.28 457.1 525.29 457.05 534.3 C457.03 539.07 457.01 543.83 457 548.59 C456.9 617.49 441.57 683.29 393.57 735.31 C391.73 737.31 389.99 739.36 388.25 741.44 C366.74 765.95 336.14 785.75 305.5 796.56 C304.81 796.81 304.12 797.06 303.41 797.31 C284.8 803.88 264.6 808.63 244.82 808.8 C243.89 808.81 242.97 808.82 242.02 808.83 C203.76 809.15 203.76 809.15 185.5 804.56 C184.49 804.32 183.48 804.08 182.45 803.83 C146.26 795.03 112.93 776.98 85.65 751.56 C83.69 749.74 81.68 748.03 79.62 746.31 C69.67 737.6 61.25 727.24 53.5 716.56 C52.84 715.67 52.84 715.67 52.18 714.76 C24.26 676.36 10.01 631.45 5.5 584.56 C4.33 584.48 3.17 584.39 1.97 584.3 C-26.69 581.95 -54.83 574.69 -80.5 561.56 C-81.44 561.13 -82.39 560.7 -83.36 560.25 C-99.91 552.55 -114.73 541.43 -128.5 529.56 C-129.48 528.73 -130.46 527.89 -131.46 527.03 C-136.59 522.53 -141.2 517.85 -145.5 512.56 C-146.1 511.83 -146.1 511.83 -146.72 511.07 C-166.58 486.81 -179.42 459.52 -186.31 428.94 C-186.61 427.65 -186.61 427.65 -186.9 426.34 C-190.78 407.93 -190.83 389.34 -190.83 370.61 C-190.84 368.48 -190.84 366.36 -190.85 364.23 C-190.86 356.78 -190.87 349.33 -190.87 341.87 C-190.87 334.97 -190.89 328.07 -190.92 321.17 C-190.95 315.2 -190.96 309.23 -190.96 303.26 C-190.96 299.71 -190.96 296.16 -190.98 292.62 C-191.01 288.67 -191 284.71 -190.99 280.76 C-191 279.61 -191.01 278.47 -191.02 277.28 C-190.92 264.35 -187.27 251.45 -178.03 242.05 C-171.83 236.38 -171.83 236.38 -168.38 234.25 C-166.31 232.72 -166.31 232.72 -166 230.32 C-166 228.99 -166 228.99 -166 227.64 C-165.99 226.62 -165.98 225.61 -165.97 224.56 C-165.98 223.45 -165.99 222.33 -166 221.18 C-166 220.01 -165.99 218.84 -165.98 217.63 C-165.97 214.4 -165.98 211.17 -165.99 207.95 C-166 204.56 -165.98 201.17 -165.97 197.78 C-165.94 189.88 -165.94 181.97 -165.94 174.07 C-165.94 164.06 -165.93 154.05 -165.89 144.04 C-165.87 139.38 -165.88 134.71 -165.89 130.05 C-165.86 101.13 -160 74.84 -140.5 52.56 C-139.92 51.83 -139.34 51.1 -138.75 50.34 C-126.37 35.18 -107.02 25.28 -88.45 19.98 C-84.44 18.65 -82.91 16.97 -81 13.38 C-80.6 12.58 -80.2 11.79 -79.79 10.97 C-74.23 0.62 -64.62 -4.37 -54.12 -8.68 C-36.66 -13.76 -14.23 -11.5 0 0 Z " fill="#FAFDFF" transform="translate(459.5,239.4375)"/>
<path d="M0 0 C10.7 8.69 18.21 21.26 20 35 C21.17 49.68 18.35 63.23 8.74 74.7 C-0.75 84.66 -12.22 91.3 -26.13 92.2 C-42.16 92.42 -53.89 88.31 -66 78 C-66.71 77.41 -67.41 76.83 -68.14 76.23 C-77.01 68.21 -81.27 56.74 -82.25 45.02 C-82.79 30.86 -77.63 17.74 -68.81 6.75 C-50.99 -12.45 -20.99 -15.86 0 0 Z " fill="#00AA95" transform="translate(929,498)"/>
<path d="M0 0 C6.04 4.94 10.57 13.36 12 21 C12.84 31.16 11.3 40.17 4.73 48.18 C-2.24 55.52 -9.77 59.03 -19.88 59.44 C-30.66 59.12 -39.08 54.72 -46.72 47.34 C-53.34 40.22 -54.65 33.23 -54.41 23.6 C-53.42 14.9 -49.86 7.66 -43.39 1.75 C-28.73 -9.02 -15.17 -9.68 0 0 Z " fill="#FAFDFF" transform="translate(919,513)"/>
<path d="M0 0 C4.95 0 9.9 0 15 0 C15 0.33 15 0.66 15 1 C10.05 1 5.1 1 0 1 C0 0.67 0 0.34 0 0 Z " fill="#000100" transform="translate(692,1277)"/>
<path d="M0 0 C4.62 0 9.24 0 14 0 C14 0.33 14 0.66 14 1 C9.38 1 4.76 1 0 1 C0 0.67 0 0.34 0 0 Z " fill="#000100" transform="translate(572,1277)"/>
<path d="M0 0 C2.97 0 5.94 0 9 0 C9 0.33 9 0.66 9 1 C6.03 1 3.06 1 0 1 C0 0.67 0 0.34 0 0 Z " fill="#000100" transform="translate(535,1272)"/>
<path d="M0 0 C0.33 0 0.66 0 1 0 C1 2.97 1 5.94 1 9 C0.67 9 0.34 9 0 9 C0 6.03 0 3.06 0 0 Z " fill="#000100" transform="translate(1272,535)"/>
<path d="M0 0 C2.64 0 5.28 0 8 0 C8 0.33 8 0.66 8 1 C5.36 1 2.72 1 0 1 C0 0.67 0 0.34 0 0 Z " fill="#000100" transform="translate(736,1272)"/>
<path d="M0 0 C0.33 0 0.66 0 1 0 C1 2.64 1 5.28 1 8 C0.67 8 0.34 8 0 8 C0 5.36 0 2.72 0 0 Z " fill="#000100" transform="translate(1272,736)"/>
<path d="M0 0 C2.31 0 4.62 0 7 0 C7 0.33 7 0.66 7 1 C4.69 1 2.38 1 0 1 C0 0.67 0 0.34 0 0 Z " fill="#000100" transform="translate(716,1275)"/>
<path d="M0 0 C1.98 0 3.96 0 6 0 C6 0.33 6 0.66 6 1 C4.02 1 2.04 1 0 1 C0 0.67 0 0.34 0 0 Z " fill="#000100" transform="translate(556,1275)"/>
<path d="M0 0 C1.98 0 3.96 0 6 0 C6 0.33 6 0.66 6 1 C4.02 1 2.04 1 0 1 C0 0.67 0 0.34 0 0 Z " fill="#000100" transform="translate(508,1267)"/>
<path d="M0 0 C0.33 0 0.66 0 1 0 C1 1.98 1 3.96 1 6 C0.67 6 0.34 6 0 6 C0 4.02 0 2.04 0 0 Z " fill="#000100" transform="translate(1267,508)"/>
<path d="M0 0 C1.65 0 3.3 0 5 0 C5 0.33 5 0.66 5 1 C3.35 1 1.7 1 0 1 C0 0.67 0 0.34 0 0 Z " fill="#000100" transform="translate(524,1270)"/>
<path d="M0 0 C1.65 0 3.3 0 5 0 C5 0.33 5 0.66 5 1 C3.35 1 1.7 1 0 1 C0 0.67 0 0.34 0 0 Z " fill="#000100" transform="translate(766,1267)"/>
<path d="M0 0 C0.33 0 0.66 0 1 0 C1 1.65 1 3.3 1 5 C0.67 5 0.34 5 0 5 C0 3.35 0 1.7 0 0 Z " fill="#000100" transform="translate(1262,788)"/>
<path d="M0 0 C0.33 0 0.66 0 1 0 C1 1.65 1 3.3 1 5 C0.67 5 0.34 5 0 5 C0 3.35 0 1.7 0 0 Z " fill="#000100" transform="translate(1267,766)"/>
<path d="M0 0 C0.33 0 0.66 0 1 0 C1 1.65 1 3.3 1 5 C0.67 5 0.34 5 0 5 C0 3.35 0 1.7 0 0 Z " fill="#000100" transform="translate(1275,557)"/>
<path d="M0 0 C0.33 0 0.66 0 1 0 C1 1.65 1 3.3 1 5 C0.67 5 0.34 5 0 5 C0 3.35 0 1.7 0 0 Z " fill="#000100" transform="translate(1262,486)"/>
<path d="M0 0 C4 1 4 1 4 1 Z " fill="#000100" transform="translate(751,1270)"/>
<path d="M0 0 C4 1 4 1 4 1 Z " fill="#000100" transform="translate(789,1262)"/>
<path d="M0 0 C4 1 4 1 4 1 Z " fill="#000100" transform="translate(487,1262)"/>
<path d="M0 0 C4 1 4 1 4 1 Z " fill="#000100" transform="translate(467,1257)"/>
<path d="M0 0 C4 1 4 1 4 1 Z " fill="#000100" transform="translate(450,1252)"/>
<path d="M0 0 C4 1 4 1 4 1 Z " fill="#000100" transform="translate(435,1247)"/>
<path d="M0 0 C1 4 1 4 1 4 Z " fill="#000100" transform="translate(1247,841)"/>
<path d="M0 0 C1 4 1 4 1 4 Z " fill="#000100" transform="translate(1257,808)"/>
<path d="M0 0 C1 4 1 4 1 4 Z " fill="#000100" transform="translate(1270,751)"/>
<path d="M0 0 C1 4 1 4 1 4 Z " fill="#000100" transform="translate(1275,719)"/>
<path d="M0 0 C1 4 1 4 1 4 Z " fill="#000100" transform="translate(1257,467)"/>
<path d="M0 0 C1 4 1 4 1 4 Z " fill="#000100" transform="translate(1252,450)"/>
<path d="M0 0 C3 1 3 1 3 1 Z " fill="#000100" transform="translate(479,1260)"/>
<path d="M0 0 C3 1 3 1 3 1 Z " fill="#000100" transform="translate(809,1257)"/>
<path d="M0 0 C3 1 3 1 3 1 Z " fill="#000100" transform="translate(842,1247)"/>
<path d="M0 0 C3 1 3 1 3 1 Z " fill="#000100" transform="translate(361,1217)"/>
<path d="M0 0 C0.99 0.5 0.99 0.5 2 1 C1.01 1.5 1.01 1.5 0 2 C0 1.34 0 0.68 0 0 Z " fill="#FAFDFF" transform="translate(1180,980)"/>
<path d="M0 0 C0.99 0.5 0.99 0.5 2 1 C1.01 1.5 1.01 1.5 0 2 C0 1.34 0 0.68 0 0 Z " fill="#FAFDFF" transform="translate(1195,955)"/>
<path d="" fill="#000100" transform="translate(0,0)"/>
<path d="" fill="#000100" transform="translate(0,0)"/>
<path d="" fill="#000100" transform="translate(0,0)"/>
<path d="" fill="#000100" transform="translate(0,0)"/>
<path d="" fill="#000100" transform="translate(0,0)"/>
<path d="M0 0 C2 1 2 1 2 1 Z " fill="#000100" transform="translate(500,1265)"/>
<path d="M0 0 C2 1 2 1 2 1 Z " fill="#000100" transform="translate(798,1260)"/>
<path d="M0 0 C2 1 2 1 2 1 Z " fill="#000100" transform="translate(827,1252)"/>
<path d="M0 0 C2 1 2 1 2 1 Z " fill="#000100" transform="translate(857,1242)"/>
<path d="M0 0 C2 1 2 1 2 1 Z " fill="#000100" transform="translate(421,1242)"/>
<path d="M0 0 C2 1 2 1 2 1 Z " fill="#000100" transform="translate(407,1237)"/>
<path d="M0 0 C2 1 2 1 2 1 Z " fill="#000100" transform="translate(390,1230)"/>
<path d="M0 0 C2 1 2 1 2 1 Z " fill="#000100" transform="translate(894,1227)"/>
<path d="M0 0 C2 1 2 1 2 1 Z " fill="#000100" transform="translate(372,1222)"/>
<path d="M0 0 C2 1 2 1 2 1 Z " fill="#FAFDFF" transform="translate(912,1218)"/>
<path d="M0 0 C2 1 2 1 2 1 Z " fill="#000100" transform="translate(916,1217)"/>
<path d="M0 0 C2 1 2 1 2 1 Z " fill="#FAFDFF" transform="translate(922,1213)"/>
<path d="M0 0 C2 1 2 1 2 1 Z " fill="#000100" transform="translate(926,1212)"/>
<path d="M0 0 C2 1 2 1 2 1 Z " fill="#FAFDFF" transform="translate(932,1208)"/>
<path d="M0 0 C2 1 2 1 2 1 Z " fill="#000100" transform="translate(936,1207)"/>
<path d="M0 0 C2 1 2 1 2 1 Z " fill="#FAFDFF" transform="translate(942,1203)"/>
<path d="M0 0 C2 1 2 1 2 1 Z " fill="#000100" transform="translate(332,1202)"/>
<path d="M0 0 C2 1 2 1 2 1 Z " fill="#FAFDFF" transform="translate(984,1178)"/>
<path d="M0 0 C2 1 2 1 2 1 Z " fill="#FAFDFF" transform="translate(992,1173)"/>
<path d="M0 0 C2 1 2 1 2 1 Z " fill="#7DD3CA" transform="translate(1014,1158)"/>
<path d="M0 0 C2 1 2 1 2 1 Z " fill="#FAFDFF" transform="translate(255,1152)"/>
<path d="M0 0 C2 1 2 1 2 1 Z " fill="#FAFDFF" transform="translate(1135,1043)"/>
<path d="" fill="#FAFDFF" transform="translate(0,0)"/>
<path d="" fill="#FAFDFF" transform="translate(0,0)"/>
<path d="M0 0 C2 1 2 1 2 1 Z " fill="#FAFDFF" transform="translate(1175,988)"/>
<path d="M0 0 C2 1 2 1 2 1 Z " fill="#FAFDFF" transform="translate(1185,973)"/>
<path d="" fill="#000100" transform="translate(0,0)"/>
<path d="" fill="#FAFDFF" transform="translate(0,0)"/>
<path d="" fill="#000100" transform="translate(0,0)"/>
<path d="" fill="#FAFDFF" transform="translate(0,0)"/>
<path d="" fill="#000100" transform="translate(0,0)"/>
<path d="" fill="#FAFDFF" transform="translate(0,0)"/>
<path d="" fill="#000100" transform="translate(0,0)"/>
<path d="" fill="#FAFDFF" transform="translate(0,0)"/>
<path d="" fill="#000100" transform="translate(0,0)"/>
<path d="" fill="#000100" transform="translate(0,0)"/>
<path d="" fill="#FAFDFF" transform="translate(0,0)"/>
<path d="" fill="#FAFDFF" transform="translate(0,0)"/>
<path d="" fill="#FAFDFF" transform="translate(0,0)"/>
<path d="" fill="#000100" transform="translate(0,0)"/>
<path d="" fill="#000100" transform="translate(0,0)"/>
<path d="" fill="#000100" transform="translate(0,0)"/>
<path d="" fill="#000100" transform="translate(0,0)"/>
<path d="" fill="#000100" transform="translate(0,0)"/>
<path d="" fill="#000100" transform="translate(0,0)"/>
<path d="" fill="#000100" transform="translate(0,0)"/>
<path d="" fill="#000100" transform="translate(0,0)"/>
<path d="M0 0 C2 1 2 1 2 1 Z " fill="#FAFDFF" transform="translate(1185,306)"/>
<path d="" fill="#000100" transform="translate(0,0)"/>
<path d="" fill="#FAFDFF" transform="translate(0,0)"/>
<path d="" fill="#FAFDFF" transform="translate(0,0)"/>
<path d="" fill="#000100" transform="translate(0,0)"/>
<path d="" fill="#000100" transform="translate(0,0)"/>
<path d="" fill="#000100" transform="translate(0,0)"/>
<path d="" fill="#FAFDFF" transform="translate(0,0)"/>
<path d="" fill="#000100" transform="translate(0,0)"/>
<path d="" fill="#FAFDFF" transform="translate(0,0)"/>
<path d="" fill="#000100" transform="translate(0,0)"/>
<path d="" fill="#000100" transform="translate(0,0)"/>
<path d="" fill="#000100" transform="translate(0,0)"/>
<path d="" fill="#000100" transform="translate(0,0)"/>
<path d="" fill="#000100" transform="translate(0,0)"/>
<path d="" fill="#000100" transform="translate(0,0)"/>
<path d="" fill="#FAFDFF" transform="translate(0,0)"/>
<path d="" fill="#000100" transform="translate(0,0)"/>
<path d="" fill="#FAFDFF" transform="translate(0,0)"/>
<path d="" fill="#000100" transform="translate(0,0)"/>
<path d="" fill="#000100" transform="translate(0,0)"/>
<path d="" fill="#000100" transform="translate(0,0)"/>
<path d="" fill="#000100" transform="translate(0,0)"/>
<path d="" fill="#000100" transform="translate(0,0)"/>
<path d="" fill="#000100" transform="translate(0,0)"/>
<path d="" fill="#FAFDFF" transform="translate(0,0)"/>
<path d="" fill="#FAFDFF" transform="translate(0,0)"/>
<path d="" fill="#000100" transform="translate(0,0)"/>
<path d="" fill="#000100" transform="translate(0,0)"/>
<path d="" fill="#FAFDFF" transform="translate(0,0)"/>
<path d="" fill="#00AA95" transform="translate(0,0)"/>
<path d="" fill="#000100" transform="translate(0,0)"/>
<path d="" fill="#FAFDFF" transform="translate(0,0)"/>
<path d="" fill="#FAFDFF" transform="translate(0,0)"/>
<path d="" fill="#00AA95" transform="translate(0,0)"/>
<path d="" fill="#000100" transform="translate(0,0)"/>
<path d="" fill="#000100" transform="translate(0,0)"/>
<path d="" fill="#000100" transform="translate(0,0)"/>
<path d="" fill="#000100" transform="translate(0,0)"/>
<path d="" fill="#000100" transform="translate(0,0)"/>
<path d="" fill="#000100" transform="translate(0,0)"/>
<path d="" fill="#000100" transform="translate(0,0)"/>
<path d="" fill="#000100" transform="translate(0,0)"/>
<path d="" fill="#000100" transform="translate(0,0)"/>
<path d="" fill="#000100" transform="translate(0,0)"/>
<path d="" fill="#00AA95" transform="translate(0,0)"/>
<path d="" fill="#FAFDFF" transform="translate(0,0)"/>
<path d="" fill="#00AA95" transform="translate(0,0)"/>
<path d="" fill="#FAFDFF" transform="translate(0,0)"/>
<path d="" fill="#00AA95" transform="translate(0,0)"/>
<path d="" fill="#000100" transform="translate(0,0)"/>
<path d="" fill="#000100" transform="translate(0,0)"/>
<path d="" fill="#000100" transform="translate(0,0)"/>
<path d="" fill="#000100" transform="translate(0,0)"/>
<path d="" fill="#FAFDFF" transform="translate(0,0)"/>
<path d="" fill="#000100" transform="translate(0,0)"/>
<path d="" fill="#FAFDFF" transform="translate(0,0)"/>
<path d="" fill="#FAFDFF" transform="translate(0,0)"/>
<path d="" fill="#000100" transform="translate(0,0)"/>
<path d="" fill="#000100" transform="translate(0,0)"/>
<path d="" fill="#00AA95" transform="translate(0,0)"/>
<path d="" fill="#000100" transform="translate(0,0)"/>
<path d="" fill="#00AA95" transform="translate(0,0)"/>
<path d="" fill="#000100" transform="translate(0,0)"/>
<path d="" fill="#00AA95" transform="translate(0,0)"/>
<path d="" fill="#FAFDFF" transform="translate(0,0)"/>
<path d="" fill="#000100" transform="translate(0,0)"/>
<path d="" fill="#FAFDFF" transform="translate(0,0)"/>
<path d="" fill="#FAFDFF" transform="translate(0,0)"/>
<path d="" fill="#000100" transform="translate(0,0)"/>
<path d="" fill="#FAFDFF" transform="translate(0,0)"/>
<path d="" fill="#000100" transform="translate(0,0)"/>
<path d="" fill="#FAFDFF" transform="translate(0,0)"/>
<path d="" fill="#00AA95" transform="translate(0,0)"/>
<path d="" fill="#FAFDFF" transform="translate(0,0)"/>
<path d="" fill="#00AA95" transform="translate(0,0)"/>
<path d="" fill="#00AA95" transform="translate(0,0)"/>
<path d="" fill="#000100" transform="translate(0,0)"/>
<path d="" fill="#00AA95" transform="translate(0,0)"/>
<path d="" fill="#000100" transform="translate(0,0)"/>
<path d="" fill="#FAFDFF" transform="translate(0,0)"/>
<path d="" fill="#00AA95" transform="translate(0,0)"/>
<path d="" fill="#000100" transform="translate(0,0)"/>
<path d="" fill="#000100" transform="translate(0,0)"/>
<path d="" fill="#000100" transform="translate(0,0)"/>
<path d="" fill="#00AA95" transform="translate(0,0)"/>
<path d="" fill="#00AA95" transform="translate(0,0)"/>
<path d="" fill="#00AA95" transform="translate(0,0)"/>
<path d="" fill="#000100" transform="translate(0,0)"/>
<path d="" fill="#00AA95" transform="translate(0,0)"/>
<path d="" fill="#000100" transform="translate(0,0)"/>
<path d="" fill="#00AA95" transform="translate(0,0)"/>
<path d="" fill="#000100" transform="translate(0,0)"/>
<path d="" fill="#000100" transform="translate(0,0)"/>
<path d="" fill="#00AA95" transform="translate(0,0)"/>
<path d="" fill="#FAFDFF" transform="translate(0,0)"/>
<path d="" fill="#FAFDFF" transform="translate(0,0)"/>
<path d="" fill="#00AA95" transform="translate(0,0)"/>
<path d="" fill="#FAFDFF" transform="translate(0,0)"/>
<path d="" fill="#00AA95" transform="translate(0,0)"/>
<path d="" fill="#FAFDFF" transform="translate(0,0)"/>
<path d="" fill="#FAFDFF" transform="translate(0,0)"/>
<path d="" fill="#000100" transform="translate(0,0)"/>
<path d="" fill="#00AA95" transform="translate(0,0)"/>
<path d="" fill="#FAFDFF" transform="translate(0,0)"/>
<path d="" fill="#000100" transform="translate(0,0)"/>
<path d="" fill="#00AA95" transform="translate(0,0)"/>
<path d="" fill="#00AA95" transform="translate(0,0)"/>
<path d="" fill="#00AA95" transform="translate(0,0)"/>
<path d="" fill="#00AA95" transform="translate(0,0)"/>
<path d="" fill="#000100" transform="translate(0,0)"/>
</svg>
